<?xml version="1.0" standalone="no"?><!DOCTYPE svg PUBLIC "-//W3C//DTD SVG 1.1//EN" "http://www.w3.org/Graphics/SVG/1.1/DTD/svg11.dtd"><svg t="1597286915798" class="icon" viewBox="0 0 1024 1024" version="1.1" xmlns="http://www.w3.org/2000/svg" p-id="2278" xmlns:xlink="http://www.w3.org/1999/xlink" width="200" height="200"><defs><style type="text/css"></style></defs><path d="M48.639 538.451c-10.45 0.001-20.879-4.096-28.68-12.235-15.178-15.837-14.643-40.978 1.193-56.156L448.085 60.89c17.154-16.448 39.851-25.51 63.906-25.51 24.045 0 46.742 9.056 63.912 25.5l426.942 409.179c15.836 15.177 16.37 40.318 1.191 56.156-15.176 15.835-40.318 16.37-56.155 1.193L520.95 118.24c-4.765-4.564-13.132-4.574-17.895-0.007L76.115 527.41c-7.696 7.377-17.595 11.04-27.476 11.042z" fill="#000000" p-id="2279"></path><path d="M816.495 988.628H657.629c-51.1 0-92.672-41.572-92.672-92.67v-172.11H459.043v172.11c0 51.099-41.573 92.67-92.672 92.67H207.503c-51.1 0-92.673-41.571-92.673-92.67V551.741c0-21.936 17.782-39.718 39.717-39.718 21.936 0 39.718 17.782 39.718 39.718v344.216c0 7.3 5.939 13.236 13.239 13.236h158.867c7.3 0 13.239-5.938 13.239-13.236V684.132c0-21.936 17.782-39.718 39.717-39.718h185.348c21.935 0 39.717 17.782 39.717 39.718v211.825c0 7.3 5.94 13.236 13.239 13.236h158.865c7.301 0 13.24-5.938 13.24-13.236V551.741c0-21.936 17.783-39.718 39.718-39.718s39.717 17.782 39.717 39.718v344.216c-0.001 51.1-41.575 92.67-92.676 92.67zM909.504 300.149c-21.935 0-39.717-17.782-39.717-39.717v-145.63H724.16c-21.935 0-39.717-17.782-39.717-39.717s17.782-39.717 39.717-39.717h145.63c43.799 0 79.432 35.633 79.432 79.434v145.63c0 21.935-17.782 39.717-39.718 39.717z" fill="#000000" p-id="2280"></path></svg>