<?xml version="1.0" standalone="no"?><!DOCTYPE svg PUBLIC "-//W3C//DTD SVG 1.1//EN" "http://www.w3.org/Graphics/SVG/1.1/DTD/svg11.dtd"><svg t="1597286964389" class="icon" viewBox="0 0 1024 1024" version="1.1" xmlns="http://www.w3.org/2000/svg" p-id="2419" xmlns:xlink="http://www.w3.org/1999/xlink" width="200" height="200"><defs><style type="text/css"></style></defs><path d="M275.2 870.4h-96c-32 0-57.6-25.6-57.6-57.6V499.2c0-32 25.6-57.6 57.6-57.6h102.4c32 0 57.6 25.6 57.6 57.6v313.6c0 32-32 57.6-64 57.6z m-76.8-76.8h64V512h-64v281.6z m364.8 76.8H460.8c-32 0-57.6-25.6-57.6-57.6V57.6c0-32 25.6-57.6 57.6-57.6h102.4c32 0 57.6 25.6 57.6 57.6v748.8c0 38.4-25.6 64-57.6 64zM480 793.6h64V76.8h-64v716.8z m364.8 76.8H742.4c-32 0-57.6-25.6-57.6-57.6V352c0-32 25.6-57.6 57.6-57.6h102.4c32 0 57.6 25.6 57.6 57.6v256c0 19.2-19.2 38.4-38.4 38.4s-38.4-19.2-38.4-38.4V364.8h-64v422.4h64v-38.4c0-19.2 19.2-38.4 38.4-38.4s38.4 19.2 38.4 38.4v57.6c0 38.4-25.6 64-57.6 64zM947.2 1024H70.4c-19.2 0-32-12.8-32-32v-19.2c0-19.2 12.8-32 32-32h876.8c19.2 0 32 12.8 32 32V992c6.4 19.2-12.8 32-32 32z" p-id="2420"></path></svg>