<?xml version="1.0" standalone="no"?><!DOCTYPE svg PUBLIC "-//W3C//DTD SVG 1.1//EN" "http://www.w3.org/Graphics/SVG/1.1/DTD/svg11.dtd"><svg t="1597287002522" class="icon" viewBox="0 0 1026 1024" version="1.1" xmlns="http://www.w3.org/2000/svg" p-id="2559" xmlns:xlink="http://www.w3.org/1999/xlink" width="200.390625" height="200"><defs><style type="text/css"></style></defs><path d="M384 469.333H85.333C38.4 469.333 0 430.933 0 384V85.333C0 38.4 38.4 0 85.333 0H384c46.933 0 85.333 38.4 85.333 85.333V384c0 46.933-38.4 85.333-85.333 85.333zM384 384v42.667V384zM85.333 85.333V384H384V85.333H85.333zM770.133 512c-21.333 0-40.533-8.533-55.466-23.467L537.6 311.467c-14.933-14.934-23.467-34.134-23.467-55.467s8.534-40.533 23.467-55.467l177.067-179.2c29.866-29.866 81.066-29.866 110.933 0l177.067 179.2c14.933 14.934 23.466 34.134 23.466 55.467s-8.533 40.533-23.466 55.467L825.6 488.533C810.667 503.467 791.467 512 770.133 512z m-166.4-256l168.534 168.533L938.667 256 770.133 87.467 603.733 256zM384 1024H85.333C38.4 1024 0 985.6 0 938.667V640c0-46.933 38.4-85.333 85.333-85.333H384c46.933 0 85.333 38.4 85.333 85.333v298.667c0 46.933-38.4 85.333-85.333 85.333z m0-85.333v42.666-42.666zM85.333 640v298.667H384V640H85.333zM940.8 1024H642.133c-46.933 0-85.333-38.4-85.333-85.333V640c0-46.933 38.4-85.333 85.333-85.333H940.8c46.933 0 85.333 38.4 85.333 85.333v298.667c0 46.933-38.4 85.333-85.333 85.333z m0-85.333v42.666-42.666zM642.133 640v298.667H940.8V640H642.133z" fill="#000000" p-id="2560"></path></svg>