<?xml version="1.0" standalone="no"?><!DOCTYPE svg PUBLIC "-//W3C//DTD SVG 1.1//EN" "http://www.w3.org/Graphics/SVG/1.1/DTD/svg11.dtd"><svg t="1597287055801" class="icon" viewBox="0 0 1024 1024" version="1.1" xmlns="http://www.w3.org/2000/svg" p-id="2699" xmlns:xlink="http://www.w3.org/1999/xlink" width="200" height="200"><defs><style type="text/css"></style></defs><path d="M926.948 598.13c-51.087 7.623-95.915 38.115-121.515 82.83-25.941 44.487-30.037 98.304-11.264 146.204-43.463 38.912-94.663 68.38-150.187 86.585-32.085-40.277-81.01-63.715-132.665-63.488-51.655-0.227-100.58 23.211-132.665 63.488-55.523-18.204-106.61-47.673-150.186-86.47a167.837 167.837 0 0 0-11.15-146.205c-25.6-44.715-70.429-75.207-121.515-82.83-11.833-57.003-11.833-115.826 0-172.943 51.086-7.509 95.915-38.001 121.515-82.716a167.837 167.837 0 0 0 11.15-146.205c43.463-38.912 94.663-68.38 150.186-86.584 32.2 40.277 81.01 63.715 132.665 63.488 52.68 0 100.921-23.666 132.665-63.488A423.516 423.516 0 0 1 794.17 196.38c-18.887 47.9-14.791 101.718 11.264 146.205 25.6 44.715 70.428 75.207 121.515 82.716 11.946 56.89 11.946 115.712 0 172.829m74.524-225.166c-5.348-19.229-23.552-32.086-43.577-30.72-32.199 2.161-62.919-14.223-78.962-42.098-16.27-27.876-15.132-62.464 2.845-89.316 11.036-16.611 8.988-38.57-4.893-52.793C811.122 90.34 727.723 42.325 636.018 19.228c-19.342-4.892-39.481 4.438-48.356 22.3-14.222 28.9-43.804 47.219-76.117 47.105-32.313 0.114-61.895-18.205-76.117-47.104-8.875-17.863-29.014-27.08-48.356-22.3-91.705 22.983-175.104 71.11-240.981 138.808-13.881 14.336-15.93 36.295-4.893 52.907 17.977 26.738 19.115 61.44 2.845 89.202-16.043 27.99-46.65 44.26-78.962 42.098-20.025-1.48-38.23 11.377-43.463 30.72C8.76 418.02 2.276 464.782 2.276 511.659c0 47.104 6.485 93.753 19.228 138.695 5.461 19.228 23.552 31.971 43.463 30.72 32.2-2.048 62.805 14.336 78.962 42.211 16.27 27.99 15.246 62.237-2.845 89.202-11.036 16.612-8.988 38.57 4.893 52.793 65.763 67.698 149.276 115.826 240.981 138.809 19.342 4.892 39.481-4.324 48.356-22.187 14.222-28.9 43.804-47.218 76.117-46.99 32.54 0 61.668 17.977 76.117 46.99 8.875 17.863 29.014 27.08 48.356 22.3 91.705-22.982 175.104-71.11 240.981-138.808 13.881-14.336 15.93-36.295 4.893-52.907-17.977-26.738-19.001-61.326-2.845-89.088 15.93-28.103 46.65-44.487 78.962-42.211 19.911 1.137 38.116-11.492 43.577-30.72 12.857-45.17 19.342-91.82 19.228-138.696 0-47.217-6.485-93.866-19.228-138.808" fill="#000000" p-id="2700"></path><path d="M511.545 638.52c-70.201 0-127.317-57.002-127.317-126.861 0-69.974 57.116-126.863 127.317-126.863s127.317 56.89 127.317 126.863S581.746 638.52 511.545 638.52m0-338.375c-116.964 0-212.196 94.89-212.196 211.513s95.232 211.513 212.196 211.513S723.74 628.28 723.74 511.659c-0.113-116.736-95.232-211.513-212.195-211.513" fill="#000000" p-id="2701"></path></svg>