<?xml version="1.0" encoding="UTF-8"?>
<svg width="16px" height="16px" viewBox="0 0 16 16" version="1.1" xmlns="http://www.w3.org/2000/svg" xmlns:xlink="http://www.w3.org/1999/xlink">
    <!-- Generator: Sketch 60.1 (88133) - https://sketch.com -->
    <title>EAF136D4-FC36-4E3A-89FB-9BF3B9310F99</title>
    <desc>Created with Sketch.</desc>
    <g id="组件创建页面" stroke="none" stroke-width="1" fill="none" fill-rule="evenodd">
        <g id="导航图标" transform="translate(-80.000000, -36.000000)" fill="#FFFFFF">
            <g id="风险为本-hover" transform="translate(80.000000, 36.000000)">
                <g id="风险为本">
                    <g fill-rule="nonzero">
                        <path d="M5.97014925,7.32794361 L1.32669983,7.32794361 C0.597014925,7.32794361 0,6.73092868 0,6.00124378 L0,1.35779436 C0,0.628109453 0.597014925,0.0310945274 1.32669983,0.0310945274 L5.97014925,0.0310945274 C6.69983416,0.0310945274 7.29684908,0.628109453 7.29684908,1.35779436 L7.29684908,6.00124378 C7.29684908,6.73092868 6.69983416,7.32794361 5.97014925,7.32794361 Z M6.01237562,6.00124378 L6.01237562,6.6645937 L6.01237562,6.00124378 Z M1.32669983,1.35779436 L1.32669983,6.00124378 L5.97014925,6.00124378 L5.97014925,1.35779436 L1.32669983,1.35779436 Z M11.973466,7.99129353 C11.641791,7.99129353 11.3432836,7.85862355 11.1111111,7.62645107 L8.35820896,4.87354893 C8.12603649,4.64137646 7.9933665,4.342869 7.9933665,4.01119403 C7.9933665,3.67951906 8.12603647,3.38101161 8.35820896,3.14883913 L11.1111111,0.362769481 C11.5754561,-0.101575466 12.371476,-0.101575466 12.8358209,0.362769481 L15.5887231,3.14883913 C15.8208955,3.3810116 15.9535655,3.67951906 15.9535655,4.01119403 C15.9535655,4.342869 15.8208955,4.64137645 15.5887231,4.87354893 L12.8358209,7.62645107 C12.6036484,7.85862354 12.305141,7.99129353 11.973466,7.99129353 L11.973466,7.99129353 Z M9.38640132,4.01119403 L12.0066335,6.6314262 L14.5936982,4.01119403 L11.973466,1.39096186 L9.38640132,4.01119403 Z M5.97014925,15.9514925 L1.32669983,15.9514925 C0.597014925,15.9514925 0,15.3544776 0,14.6247927 L0,9.98134328 C0,9.25165838 0.597014925,8.65464345 1.32669983,8.65464345 L5.97014925,8.65464345 C6.69983416,8.65464345 7.29684908,9.25165838 7.29684908,9.98134328 L7.29684908,14.6247927 C7.29684908,15.3544776 6.69983416,15.9514925 5.97014925,15.9514925 Z M6.01237562,14.6247927 L6.01237562,15.2881426 L6.01237562,14.6247927 Z M1.32669983,9.98134328 L1.32669983,14.6247927 L5.97014925,14.6247927 L5.97014925,9.98134328 L1.32669983,9.98134328 Z M14.6268657,15.9514925 L9.98341625,15.9514925 C9.25373134,15.9514925 8.65671642,15.3544776 8.65671642,14.6247927 L8.65671642,9.98134328 C8.65671642,9.25165838 9.25373134,8.65464345 9.98341625,8.65464345 L14.6268657,8.65464345 C15.3565506,8.65464345 15.9535655,9.25165838 15.9535655,9.98134328 L15.9535655,14.6247927 C15.9535655,15.3544776 15.3565506,15.9514925 14.6268657,15.9514925 Z M14.669092,14.6247927 L14.669092,15.2881426 L14.669092,14.6247927 Z M9.98341625,9.98134328 L9.98341625,14.6247927 L14.6268657,14.6247927 L14.6268657,9.98134328 L9.98341625,9.98134328 Z" id="形状"></path>
                    </g>
                </g>
            </g>
        </g>
    </g>
</svg>