<?xml version="1.0" standalone="no"?><!DOCTYPE svg PUBLIC "-//W3C//DTD SVG 1.1//EN" "http://www.w3.org/Graphics/SVG/1.1/DTD/svg11.dtd"><svg t="1594886692977" class="icon" viewBox="0 0 1024 1024" version="1.1" xmlns="http://www.w3.org/2000/svg" p-id="5092" xmlns:xlink="http://www.w3.org/1999/xlink" width="200" height="200"><defs><style type="text/css"></style></defs><path d="M490.666667 657.706667V725.333333a21.333333 21.333333 0 0 0 42.666666 0v-67.626666a64.021333 64.021333 0 1 0-42.666666 0zM341.333333 405.333333v-85.333333a170.666667 170.666667 0 1 1 341.333334 0v85.333333h85.333333a42.666667 42.666667 0 0 1 42.666667 42.666667v341.333333a42.666667 42.666667 0 0 1-42.666667 42.666667H256a42.666667 42.666667 0 0 1-42.666667-42.666667V448a42.666667 42.666667 0 0 1 42.666667-42.666667h85.333333z m64 0h213.333334v-85.333333a106.666667 106.666667 0 0 0-213.333334 0v85.333333z" fill="#2A2A37" p-id="5093"></path></svg>